# xmcd CD database file
#
# Track frame offsets:
#	150
#	46369
#	105333
#	162652
#	212987
#
# Disc length: 3610 seconds
#
# Revision: 0
# Processed by: cddbd v1.5.2PL0 Copyright (c) Steve Scherf et al.
# Submitted via: CDex 1.51
#
DISCID=410e1805
DTITLE=Terry Oldfield - Reiki Harmony
DYEAR=2006
DGENRE=New Age
TTITLE0=Spirit Calling
TTITLE1=Om Shanti
TTITLE2=Awakening Heart
TTITLE3=Loving Touch
TTITLE4=Joy Expanding
EXTD=YEAR: 2006
EXTT0=
EXTT1=
EXTT2=
EXTT3=
EXTT4=
PLAYORDER=
